<mxfile host="Electron" modified="2023-10-07T11:59:38.701Z" agent="Mozilla/5.0 (Windows NT 10.0; Win64; x64) AppleWebKit/537.36 (KHTML, like Gecko) draw.io/21.6.8 Chrome/114.0.5735.289 Electron/25.5.0 Safari/537.36" etag="Mhx9JmELocfS1mtqu0Sd" version="21.6.8" type="device">
  <diagram id="dX7Dphyso45SB9-RoEhv" name="Page-1">
    <mxGraphModel dx="1036" dy="606" grid="1" gridSize="10" guides="1" tooltips="1" connect="1" arrows="1" fold="1" page="1" pageScale="1" pageWidth="827" pageHeight="1169" math="0" shadow="0">
      <root>
        <mxCell id="0" />
        <mxCell id="1" parent="0" />
        <mxCell id="nfxZPmU7g6QgWNAvG-ER-2" value="" style="whiteSpace=wrap;html=1;aspect=fixed;strokeWidth=5;strokeColor=#FFFFFF;fillColor=#000000;" parent="1" vertex="1">
          <mxGeometry x="210" y="90" width="600" height="600" as="geometry" />
        </mxCell>
        <mxCell id="8b6ggLF4gSHIukh4vJdm-18" value="&lt;font face=&quot;xkcd&quot;&gt;&lt;span style=&quot;font-size: 40px&quot;&gt;the moose test&lt;/span&gt;&lt;br&gt;&lt;/font&gt;" style="text;html=1;strokeColor=none;fillColor=none;align=center;verticalAlign=middle;whiteSpace=wrap;rounded=0;fontColor=#FFFFFF;" parent="1" vertex="1">
          <mxGeometry x="215" y="130" width="590" height="20" as="geometry" />
        </mxCell>
        <mxCell id="8b6ggLF4gSHIukh4vJdm-24" value="&lt;font face=&quot;xkcd&quot;&gt;&lt;span style=&quot;font-size: 18px&quot;&gt;the top view&lt;/span&gt;&lt;br&gt;&lt;/font&gt;" style="text;html=1;strokeColor=none;fillColor=none;align=center;verticalAlign=middle;whiteSpace=wrap;rounded=0;fontColor=#FFFFFF;" parent="1" vertex="1">
          <mxGeometry x="210" y="170" width="600" height="20" as="geometry" />
        </mxCell>
        <mxCell id="8b6ggLF4gSHIukh4vJdm-30" value="" style="endArrow=none;dashed=1;html=1;strokeWidth=2;labelBackgroundColor=none;fontColor=#FFFFFF;strokeColor=#FFFFFF;" parent="1" edge="1">
          <mxGeometry width="50" height="50" relative="1" as="geometry">
            <mxPoint x="796.5" y="210" as="sourcePoint" />
            <mxPoint x="221.5" y="210" as="targetPoint" />
          </mxGeometry>
        </mxCell>
        <mxCell id="k-dpR7HA_-HZ3Fbqk2lw-16" value="" style="endArrow=none;dashed=1;html=1;strokeWidth=2;labelBackgroundColor=none;fontColor=#FFFFFF;strokeColor=#FFFFFF;" parent="1" edge="1">
          <mxGeometry width="50" height="50" relative="1" as="geometry">
            <mxPoint x="797.5" y="612" as="sourcePoint" />
            <mxPoint x="222.5" y="612" as="targetPoint" />
          </mxGeometry>
        </mxCell>
        <mxCell id="k-dpR7HA_-HZ3Fbqk2lw-17" value="&lt;div style=&quot;&quot;&gt;&lt;span style=&quot;font-size: 14px; font-family: xkcd; background-color: initial;&quot;&gt;side note&lt;/span&gt;&lt;/div&gt;&lt;div style=&quot;border-color: var(--border-color); font-size: 13px;&quot;&gt;&lt;font style=&quot;border-color: var(--border-color);&quot; face=&quot;xkcd&quot;&gt;no scandinavian flicks given&lt;/font&gt;&lt;/div&gt;&lt;div style=&quot;border-color: var(--border-color); font-size: 13px;&quot;&gt;&lt;font style=&quot;border-color: var(--border-color);&quot; face=&quot;xkcd&quot;&gt;and the chirality has been changed for added dramatics&lt;/font&gt;&lt;/div&gt;" style="text;html=1;strokeColor=none;fillColor=none;align=center;verticalAlign=middle;whiteSpace=wrap;rounded=0;fontColor=#FFFFFF;" parent="1" vertex="1">
          <mxGeometry x="220" y="613" width="580" height="70" as="geometry" />
        </mxCell>
        <mxCell id="euaHSMH8fYii958cPEId-22" style="edgeStyle=orthogonalEdgeStyle;rounded=0;orthogonalLoop=1;jettySize=auto;html=1;exitX=0.5;exitY=1;exitDx=0;exitDy=0;strokeWidth=2;" parent="1" edge="1">
          <mxGeometry relative="1" as="geometry">
            <mxPoint x="661" y="451" as="sourcePoint" />
            <mxPoint x="661" y="451" as="targetPoint" />
          </mxGeometry>
        </mxCell>
        <mxCell id="pKVuHFSoDqtFi99w7tCS-15" value="&lt;font face=&quot;xkcd&quot;&gt;&lt;span style=&quot;font-size: 14px&quot;&gt;the tireMARK&amp;nbsp;&lt;br&gt;&lt;/span&gt;#thecontentwriter #sbenstewart&lt;br&gt;&lt;/font&gt;" style="text;html=1;strokeColor=none;fillColor=none;align=center;verticalAlign=middle;whiteSpace=wrap;rounded=0;rotation=-90;fontColor=#FFFFFF;" parent="1" vertex="1">
          <mxGeometry x="630" y="388" width="290" height="20" as="geometry" />
        </mxCell>
        <mxCell id="NLgpDmOtwm7RyRbpqEIe-1" value="" style="endArrow=classic;html=1;rounded=0;strokeWidth=6;endFill=1;" edge="1" parent="1">
          <mxGeometry width="50" height="50" relative="1" as="geometry">
            <mxPoint x="270" y="321" as="sourcePoint" />
            <mxPoint x="670" y="321" as="targetPoint" />
            <Array as="points">
              <mxPoint x="370" y="321" />
              <mxPoint x="420" y="391" />
              <mxPoint x="470" y="391" />
              <mxPoint x="520" y="391" />
              <mxPoint x="570" y="321" />
            </Array>
          </mxGeometry>
        </mxCell>
        <mxCell id="NLgpDmOtwm7RyRbpqEIe-9" value="&lt;div style=&quot;&quot;&gt;&lt;font face=&quot;xkcd&quot;&gt;&lt;span style=&quot;font-size: 14px;&quot;&gt;start&lt;/span&gt;&lt;/font&gt;&lt;/div&gt;" style="text;html=1;strokeColor=none;fillColor=none;align=center;verticalAlign=middle;whiteSpace=wrap;rounded=0;fontColor=#FFFFFF;" vertex="1" parent="1">
          <mxGeometry x="240" y="291" width="80" height="20" as="geometry" />
        </mxCell>
        <mxCell id="NLgpDmOtwm7RyRbpqEIe-10" value="&lt;div style=&quot;&quot;&gt;&lt;font face=&quot;xkcd&quot;&gt;&lt;span style=&quot;font-size: 14px;&quot;&gt;finish&lt;/span&gt;&lt;/font&gt;&lt;/div&gt;" style="text;html=1;strokeColor=none;fillColor=none;align=right;verticalAlign=middle;whiteSpace=wrap;rounded=0;fontColor=#FFFFFF;" vertex="1" parent="1">
          <mxGeometry x="620" y="311" width="100" height="20" as="geometry" />
        </mxCell>
        <mxCell id="NLgpDmOtwm7RyRbpqEIe-11" value="" style="curved=1;endArrow=classic;html=1;rounded=0;dashed=1;strokeWidth=2;" edge="1" parent="1">
          <mxGeometry width="50" height="50" relative="1" as="geometry">
            <mxPoint x="570" y="321" as="sourcePoint" />
            <mxPoint x="750" y="341" as="targetPoint" />
            <Array as="points">
              <mxPoint x="610" y="261" />
              <mxPoint x="700" y="271" />
            </Array>
          </mxGeometry>
        </mxCell>
        <mxCell id="NLgpDmOtwm7RyRbpqEIe-12" value="" style="curved=1;endArrow=classic;html=1;rounded=0;dashed=1;strokeWidth=2;" edge="1" parent="1">
          <mxGeometry width="50" height="50" relative="1" as="geometry">
            <mxPoint x="520" y="391" as="sourcePoint" />
            <mxPoint x="660" y="361" as="targetPoint" />
            <Array as="points">
              <mxPoint x="600" y="391" />
            </Array>
          </mxGeometry>
        </mxCell>
        <mxCell id="NLgpDmOtwm7RyRbpqEIe-13" value="" style="curved=1;endArrow=classic;html=1;rounded=0;dashed=1;strokeWidth=2;" edge="1" parent="1">
          <mxGeometry width="50" height="50" relative="1" as="geometry">
            <mxPoint x="430" y="401" as="sourcePoint" />
            <mxPoint x="610" y="471" as="targetPoint" />
            <Array as="points">
              <mxPoint x="490" y="451" />
              <mxPoint x="580" y="411" />
            </Array>
          </mxGeometry>
        </mxCell>
        <mxCell id="NLgpDmOtwm7RyRbpqEIe-18" style="edgeStyle=orthogonalEdgeStyle;rounded=0;orthogonalLoop=1;jettySize=auto;html=1;exitX=0.5;exitY=1;exitDx=0;exitDy=0;" edge="1" parent="1">
          <mxGeometry relative="1" as="geometry">
            <mxPoint x="325" y="530" as="sourcePoint" />
            <mxPoint x="325" y="530" as="targetPoint" />
          </mxGeometry>
        </mxCell>
        <mxCell id="NLgpDmOtwm7RyRbpqEIe-19" value="" style="curved=1;endArrow=classic;html=1;rounded=0;fillColor=#e51400;strokeColor=#B20000;strokeWidth=2;" edge="1" parent="1">
          <mxGeometry width="50" height="50" relative="1" as="geometry">
            <mxPoint x="320" y="375" as="sourcePoint" />
            <mxPoint x="376" y="353" as="targetPoint" />
            <Array as="points">
              <mxPoint x="326" y="353" />
            </Array>
          </mxGeometry>
        </mxCell>
        <mxCell id="NLgpDmOtwm7RyRbpqEIe-20" value="" style="shape=image;verticalLabelPosition=bottom;labelBackgroundColor=default;verticalAlign=top;aspect=fixed;imageAspect=0;image=data:image/png,iVBORw0KGgoAAAANSUhEUgAAAQAAAAEAEAQAAACm67yuAAAAIGNIUk0AAHomAACAhAAA+gAAAIDoAAB1MAAA6mAAADqYAAAXcJy6UTwAAAACYktHRAAAqo0jMgAAAAlwSFlzAAAAYAAAAGAA8GtCzwAAAAd0SU1FB+cKBwsmNP7NOfIAACunSURBVHja7d15fEzX+wfw59zJgiCxpEoEESI0JQjJJNGKrYJqNCZ2rRBbUWqp1lJKCQ0JJdai1NLk21raRklIQzJJiCViJyWbIpYE2TNzfn/4UWSyzJw7c2Ymz/v16h/NzD3zmRv3ybnnnnsuAEIIIYQQQgghhKoDwjsAYhNv06oV9R8/nmT26UNNWrSArwUBmqSlQVRUFLX58UcP54sXeWd8lTzA0RHe9veHnA8+gBBbW9KNEPpVRgbtFBlJ12zb5rny0iWW9hPt27UrPTF2LHns5QUWrVpBs9JSiMjMJBOPH6f9Nm5033L1KtP+PtO2LW3i7w/L+vR5NT/ZevSocHHbNtfUy5d572N1YAEwUNHUxMS8/nffQeiMGdDc1FTlm4KUSrpn06bc9Bkz+jkUFfHMm3Ta1LT4/sqV4DRlCmSZmKh6D5EpFPTcxo2Wk7/44p3/FRer0/6lwWZmuWNWrCDjp06l4RJJefsDuoSG5vjOmqXu/kg6bWpa8mdQEB0zeXKF+c1DQy07zZqlbn5esAAYoGhqYlJj6sGDdHi/flXaICMmJqfjBx/wKgJJp01NiwMPHoSZ3t5VeT+RHT9eV+rtXdWDKOK6uXm9SYcO0SV9+lQpUI1jx3Jq9+9f1f2RdNrUtGTuH3+o077lsn79DKEICLwDIPWZ312+vMoHPwCA7fvvWzUIDeWVt3jJihVVPfgBAGh4jx5PCoODq/p+qxuBgVU+OAEACnv2tLJataqqby/5MyhI3fZzO1e9fZ6wB2BgEna3bq0ULl0qt9tfAZo4apTHjJ9/1mXe2Ow2bYT8ixfL6zaXK0ipJInOztKslJSK3naqiYODgly+XG63vxxEplAAdOxYWfvxZ9q2hYEpKZq0rxjRoQPrmIY8wNERfCZMgL969IAQW1vYLZGQr/75h3aOjibfbNki7XzlCkv72AMwMDRt7FhNDn4AAOITGpqwu3VrXeYVHPz91T74AQBmCQI1Dwio7G2lLhMnqntwAgDQcImkKu3Dt2PHatq+8P64cZrut2hao0a8TUgItLl8GepNnw7D2reHxHr1oFXdujTc2RnmzpgBA1NS5H8GB0dcNzfX9HOwABgYGt2rl8Yb/1unjrLToUPxNvXr6yzwyd69Nd2UFFWh272se3eN22/ao0dl76Hj1Oj6v2mTZttGXDc3N887cICGf/45uJNye+k0XCKBetOnWzU5eDCa1qihyWdhATA0ni1aMG3/2NGRXt+/n+Wvhlp+bdZM003p3oq3DQuTSGDjO+9o3P7f9vaVvYcst7XVtH1yRrPvbnUjMBAufPBBlTe48MEH5hHLl2vyWVgADE0MpcxtJL/3ntVX+/fH29Ssqe245Ij63eeXTGrWjKZWVuW93Lhx8+Yw3MxM4/YHKBQVvRxNTUxoUPmfXxk6SP1scYOdncn4qVPV/rAfp02TBzg6qrsZFgBD0z89XZR2Znp7099//z15poWFNuPSBQ8esGxvlty0aXmvSb5nG88gyQ8fVvR6nSTND34AAOj0+LG6mwgNV6/WZMwBZgkCsZk0Se3PY/qCSOdIUWSkaI0V9uyZvy82Vu7cvLnW8v7KVgCEoArGEHq3asWW7ubNil4tSdf89AUAAKTqFYCEzgMH0tFeXpp+HO2s/rZYAAwMaf7jj5BWUiJWezTc2Zlknz4dd77yATGN2v/7/n2m7bd99tmlweV0pVuyFQC648aNCl+3c3JiaZ/0qnoBiM2uU0dpHxLC8nngpP74EBYAA+M24sYNMkvcST003NqafBsZKf8zOFjscQFScOYMUwNJ9vZPSpYtU9n2eMZLmhkV9wDIPM2vMAAA0CV371b1vULv1athup0d0/fZp/6pAxYAA1SYOXcu7L1wQdRGZwkC1Js+nVqfPy+PHDBAtHYzT5xgbYJ+OXOm/IvFiyl985IYYw+gdvk9gLAwiQSe9O3L0j5ZcP58Vd6X0HngQAjVfM7AS06pqepuggXAAHmRwkJJxLBhEJOfL3rjoQ4OYPH773Lno0cTWrm6MrfXNDGRzBThHoTBCxfGT9+370UPJSxMIqGD2P5i0qTyewC25/v1o983bszSvjK18t5Pon27dsrPd+1i3j8AQM5ER6u9jRgfjPiItxk7loZv3arVD8mIiRFWrl5dkBQR4UVKSzVpQv7sr7/Uuq5dkcDLl0E6cqTCMzdXIlH/L95LQUpl0a8WFl6ksFDVy/E2x47RcLZxEZOMxo27Din/NCDpdMOGxR0SEiCp8vkIlZJTKiQ5O7vtU69niD0AAybN+vFHIluzRqsfYvv++8ofDh40356ZGW8TEhK7xs2NUkG9fzczNm4ULc/cdu0gKyHBZOiKFSzNkMTMzHIP/gxvb9aDn8jS0ys6+E+erFev+MSRI6Ic/AAAFnv3qnvwA2APwOBRKgjx/cLDYcHHH+vsQ+c/eECuHT4Mn4SHP/706NHKbqsNC5NImjqnpsID7V1uVFuNY8fcO5WdVp0808Iij5w7Bx8zDjA+Dglx7z9jhqqXkk5bWhZnHD0Kb3ftKsp3KS0ogGlt27qfT0tTd1PsARg4QpRKcmHkSNiemKizD13asCENHzWKDjh0yCrh/n15o3374s4PHZp02tJS1dv9/BQKMN20ife+es1D1ef/+cLGjcwHPwDAvfBwVT+WOzdvXnz35EnRDn4AoHVXr9bk4AfAAmAUpFkFBYrR3t5w99QpnX94q7p1Yf+QISR/797in+7flz/766/4MRMnxmY3afLq24hnSAiE3LrFe1+9pOISoPyLxYvpoJEjWZsmsvR06Zj4+Dd/HrvGzQ2mJSZCg3ffFe17bLx7l9pofjqEBcBIdOv2+LFkdu/eEBMXxy3EcDMzuPDBBzRgwwZhQkaGPCAhQR4wd648wNFRmlVQQHdqMMddS169BEgpIfG+S5bA4IULRWk7f98+Qv67Z4NSQYi79+WXwo2YGHBs1EjU7zFg4kRP66dPNd0exwCMTDStXbvGpEOHWKaUagORXbsGnx04AOt9fGh4mza88ygPODl5rrx0KZrWqGF+YtMmMB09WpSG3QoLlQ/t7T2t79wBAIibZ29P0rduhUlsk4pUIbLNm6VZEyYwtSF2KMRfNDUxMbdfvRp+1p+/uHolSKkkibVrA9SvT/v9+iuMEWG+wwut1q93f2vKlOSZFhbPgmbPJvTLLyFBs3v1K+SSmqrM7diR5a8/ABYAoyb/4bPPoGFwsKYrCBkrIktPp9ajRsGv4eFw7623RGt4T3Ex2e/iQmMHDIDozz8Xu7v/kk1pKXH38JBmsY/5YAEwcvG0e3fqsXMnBGm+sIXRufnkCZjWrCl6YSx69AgyTEygVd26Ws3/zYQJ7pGbN4vRFBaAaiDptKVlic/KlTR8/HjeWRCju8uXu3/89ddiNYcFoBqJtxk0iPYMDYWJb7/NOwvSQNu9e6VWI0a8eoWBFV4GrEakWfv3S+LatCGywEBwUz0NFumpDX//nZM9ZoyYBz8A9gCqrcSDdnaKhitWwCpfX5il5tx+pFv//PWXmaOvr4uL+Hd/YgGo5uJtWrWCgKlTaY+AADDR/iKhSE1OBw7k3B06VFuPdcMCgAAA4MTqxo1NDk2ZAsWjRuEVA/1A/tiyJcN50iQ/v4pXL2b6DN5fEukXSgUh7sH770tGjxpFh/n6av2SFirLprSURMyb5zbx++/FPud/ExYAVK5oamJSM9DNjRbJZNTD1xcsbGx4ZzJ6f2ZmCrWHDXP7KjZWFx+HBQBVCaWCkJjYsaPC9cMPyUcyGcxt1453JqNT49gxYeWIEW777t3T1UdiAUAaiT/Tti2t7+MD53x84J8uXSp6hh2qGJmVk0OHzZ8vnRIaqu0uf5nP5v3lkeE7aWFtLTnp7Q2lMhns7NOH6XFd1YmcUhL888+k2+zZuvyr/yosANVcNK1du0ZTOzvF+YYNBacGDejWevXI2ud/zen3T57A9YICeHL/vvBNenph5r17lS0MmnTa0rL41379oMDHB6Z7e8O/derw/o76iGxJToaun30mncRx/QbAAlCtRFMrK/Px3buTCFdXOs7FBW45Oak1LXhPcTHZf/kyDL94EfYkJpJuJ0647r14kRClUtXbI66bm9er2aMHuPn40J4DB+IUZADoePo0nbZihfvm/fvL22+6hAXAyMXTFi1go58fLPXxAejaVaMHT1aAyLKz6axDh8DpwAEzqyNHXLqofmwZpYIg/9HVlcz28YHmPj4Q6uDAe9/o1JGoKOgQGOj+8bFjvKO8CguAEbo02Mwst5WvL5ycPBkGeXjobIDu6r175ODPPyudNmzw+K7iNfurxSDi1Xv3SPovv1DzHTvcvzp3jnccVYxvp1djSUm1apVYTpwIn86axfpUGxZEplDQsN9+I35BQVVZtCLexsYGzg8cCEN9fGjb7t0NehCx8dOnkL5/P6zasydzZFSUNmfxiQELgBEIC5NIbA8HBND5ixeLusKNGGLi4si60NDCzEOHvMizZ5W93eAHEWl4uPDD1Km8RvXVhQXAwMVtlUqFb0JDabizM+8sFSotKICIqChwOHFCuJeQoPC+ft3Dueyjwy8NNjPLrdeyJbFo3x7Ce/akGaNHa2VNPW3anptLP1u4sLhDaKimj1PTFSwABirRvm5dRfyyZTBx0iSDvZ03Jj8ffn/4kAjPBw7pEisrMtLSUuyBSl7IluRk4jBliq6m9WqUkXcApD555IAB5NP162l4s2a8s6BK6MFkn4pgATAgp355+23FFytX0vBRo3hnQWranpsLud98U/TL+vX6dFqABcAAUCoICf7jx8O15ctpkJUV7zxIc/p2WoAFQM/FDXZ2Fqw2bKD+bm68syCR6NFpARYAPRWb3aSJxPmbbwDGjjWWQTH0Bj04LcACoGdis5s0kWyZNo3GTpkC8y0seOdB2sfztAALgB6IpiYmNYd5edGTo0bRQUOGGPRMOKQZOaXQZdcuYcOcObggiJG6NNjM7NFhS0vTzVZW8HuLFvT9jh3hQMeOdG6fPmBevz7vfEgP6HgSkd4UAEoF4bRNq1bKxo6O9G6bNnRWmzbkkIMDtKhbF27UqUN7W1rCAgsLg5sVhpAGdHVawLUAnDzZsqXk2169yGVPT3q7Z0843aQJzzwI6RUdXC3QeQGIt7GxoR6DB0Mjf38Y1r69rj8fIYOjxasFOikAlAqCfPygQYLks8/o/fffN9i56whxpI3TAq0WAEoFIV7u6wsrFi3CZaQREoHIpwVaKwDyRoMHw/srV8J0Ozvd7iGEqgGRrhaIXgDi5tnbk6s//AAzvb357iGEjB/raYFoBSAsTCJpuuyrr+DsvHl4qQ4hHWKYRCRKAYg7/9Zbwsxdu+iSPn147wuEqi0NrhYwF4DYbC8vic/u3TwXoUQI/Ued0wKmy3HyGpMnCxOiovDgR0h/0IAOHZSmJ07IY376KWFoo0YVvVfjHkDcvS+/JKmBgby/LEKoApWcFqhdACgVhPgR69fDlIkTeX83hFDVlHdaoHYBiCsMDSVnJ03i/YUQQmqSUwonQkKKDs6Z86I3oFYBiF/9zTfUbdEi3t8DIcRgcmSk2Zb+/V26lJRUeamp+DETJ9KPgoJ4Z0cIMepvb6/wNjf/sTAqqko9gNhsLy+Jc2Qkrk2HkJGQUyo0btOm0gM6YWijRmTz0aN0S926vDMjhERiSwjtVFRU4TwASgVBeXXXLrzOj5DxIUO7d6+wAMSPnzMHQnv35h0UISQ+etzevtwxgNiezZoJ5pcv49LUCBkvk/JeELqsWwcD8eBHyJipPAWQB/j4wMAPP+QdDiGkXWUKQFiYRAKnV6zgHQwhpH1lTgGaTRk8WHnAwYF3MISQ9r02D4BSQjIkP/0EtnjZD6Hq4LVTgIR5AwaAtFMn3qEQQrrxWgGg1/AuP4Sqk5fzABKGNmqkXJGZCVkmJiwNIoQMx8segFI+ciQe/AhVLy8LAOk5ahTvMAgh3SIA/z/td0laGu8wCCHdEgAAJFE9evAOghDSPQEAgJ7w8uIdBCGkYzalpQIAABnevTvvLAghHVualyfE29jY0PBmzXhnQQjpmMvjxwL9wdGRdw6EEAcj09MF0g1v/EGoOiLfXbsmwHrsASBULXU+dUqALfb2vHMghHSPFMbECHSKlRXvIAghHfvtxg23ETduCHCnTh3eWRBCukX2/vwzAIBAztWuzTsMQkiH0kpKTB5u3w4AIFAzfOIPQtXKmN27uxRmZAAACPCpmRnvPAgh3SCyZ8/A8b8nfAvkK0FgaA8hZEiWff21+/n/7vwVaAdSpScEI4QM3PbExIyaoaGv/kiAblgAEDJ2ZPa//0oGDBvm56dQvPpzAb7EUwCERBFy6xbttGEDuBUW8o7ymu25uYrr3t6uH9269eZLAvHAHgBCTFxSU0nYkCHSX+ztPWpMnkw29eoFkQ8f8o4F8HzQT7ls0CDP7ORkVa8LtDMWAIQ0VrJzZ5Gps7M0JCyMEEoBAKST4uKEVlIp5N68yTVbyK1bpJuHh6d1dHR5byHytJISXA0YIQ3YBQVJ354z58WB/6Z4m/r16cNVq2DpJ5+Au27/0JKd0dGmY/38XLo8eFDR+wSi42AIGYVBv/xS0cEPACDNevTIvXDMGGjZuze4pKbqIhaRZWdDzNixbht69ars4AcAIPIgpVLX1Qkhg9blzh2JY9u2rqlPnlR1k3ibmjXBa+JEuvDzz+FB8+ZiRyKyZ88AfvyxdN/ixd26PX5c5e3k8vIrGEKoLNrW39+j3vO59OqKpiYmNRv5+ipnTJ0Kp6VSmMV4FW7y9evgEBpqNnvHDpcuubnqbo4FACF1bLx7N2d+ixb9HIqKWJs6aWFtLWndty9p1K8f/djNjXxra0vDJZIKN3J9/Jg0k8tpdFQUzY+K8nC+eJElA54CIKSOvE2b3HtPnKiNpi8NNjPLrdeyJfi1agW1atZ88XNhWlFRaXpaWo2I27c1+StfERJvU1paadVBCAEAADH39ZV2/u033jnEgrMAEVKD5KZczjuDmAQ66PW5wQihcqTcvt11yN27vGOISYCuejZvGSF9pTSuv/4AAALZlJfHOwRChoAsjY/nnUFsAo3Oz+cdAiFDQH41wgJAJjx7xjsEQnqvtKDARHLhAu8YYjOhUx88ABwFQKhinU+fdrEoKeEdQ2wC2fvvv7xDIKT3miYk8I6gDQKtgQUAocqQWuXfU2/IBLiWlcU7BEL6jMwsKqo19ORJ3jm0wUQQLl9W8k6BkB6jARERHfyN83K5IAxKSeEdAiF9Rhbs2sU7g9a+GwCAPPXePbj31lu8wyCkb8icf/4pPNmmjRcpLeWdRRsEAAASnJTEOwhC+ojWXLHCWA9+gBd3A35+7BjvIAjpnTNXrhQd3baNdwxtEgAAlHlHj/IOgpBeCVIqSeCkScb81x/g/wuAe4dLl6DLnTu8wyCkL4giOFiaFRPDO4e2PR8DIJRCm19/5R0GIb0wOza2runXX/OOoQsv1wKMzXZxEW6cPs07EEJcnblyxcztvfeqsqa+MXi5JJindVISnLlyhXcghHghsmvXSkt69qwuBz/Am2sCDjDeCQ8IVSgmLk5CPTze+6J63RvzWgFQjtu9G4KUODMYVR9ySsnRtWstz/To0fWOfjzRV5fKPA9APio6GiZ17847GEJaF3j5MqRPmuR+/sQJ3lF4KbMsODmOVwOQkUu5fZs+HD/ebIGzc3U++AEAyjwWXHE+MlK4wTsWQiIrLSgA/8hIumzbtqx6f/zh9yEuhw+g4hQAAEDunp4OQba2vMMhpLbGT58Sz8JC6HPnDl1z6xatk5wsNE1IMD144oSLCy6A+yYTVT8kFmfPUsACgAzAw5QUWLtunWRKZGT+wIyMl1N3t///fy+48A6qn1QWAPpucjLARx/xDodQueSUEq8FCzIKAgP9IhUKiOQdyDCp7gF4X7+OzwxH+owET5smnbVuHe8chk71w0F7GeE6gb/duEFkOPBjDMieiAhpFh78YlBZABQPjG82lGS/j4/JQzs7SFu4EEJu3eKdB2lO0XrJEt4ZjIXKqwCxPZs1E5akpfEOJ5qNd+9Kf2rShBBKAQAoFYSE5T16QMzYsfBk0CC6ytycd0RURXlZWdJetrYvfpeIjcoegLK/kT0BZU109Kv/YAhRKqVfR0VJjwwbBulNmpAb06aBhVwOcvxHpfduxsTgwS8elQVAGEWIug3pM3L8+PHyXpNmPXok/eSHH9w7eHhINjRrBg1nzMBioL/IKeNcn58XlQVAkm5pyTuYmJRnq/ZUF9fUzEx3h5CQMsUAb5DSGwprLABiUvmXPm6rVErayeW8w4miYVqau0OLFixNnLSwtjY50KcPHO3bl07s0weXUOdk8vXr0nOOjngKIB7VlwFdmjfnHUw0N/bvZ22iW152trT37t3S70eNcrdv1Eh5wMmJ2s+dC0eiomBPcTHvr1ht7N+xAw9+cam+F8B5/nwINY5LLUTm6irNOnVKW+0nz7SwKGjYsaPC38ODpHl6Qp67O5jXr8/7exudIKXSNKJFiy6FGRm8oxgT1QXg8Z49cGXYMN7hmLmkpkpNW7fW5V8NSgUhcZiTE/3BwwNWurvDnmHDaLhEwntXGLz2R4641+7bl3cMY6NyKjBMcHOD6byjsaOX9+0jzrrtMhKiVAJcuAD7LlwA2LBBvvzjjwFq1eK9LwwdabNpE+8MxqjMGMCJ1Y0bw3Q7O97BxED37N3LOwMSgUtqakbwoUO8YxijMj0A03d79DCGURayJTnZc/ulS7xzIHb08tq1fn54H4c2lOkB0LDevXmHEsfGjbwTIHZkVk5OcQfjfj4fT2UvA77VsyfvUMyKHj2qVR+XODcG9MrmzV7k2TPeOYzVawUg7ryTE/Rv2pR3KGat1q/vsCovj3cMxMimtFTZaf163jGM2WsFQAgy/O4/mVlUVBq+YQPvHEgEEWFhnsfS03nHMGavDQLSAsMvAPSP3bvfa2B86xlUR2TpmjW8Mxi7lz2AiOvm5lDw3nu8AzGRU0ozgoN5x0AimB0bq80ZnOi5lwXAMt/DA+ZbWPAOxOTgnj0ezhcv8o6B2JHbq1fzzlAdvCwAQn8D7/67FRbC03nzeMdAIgi5dQsn/ujGyzEA2s6wCwAJXLNGet6IljGrxkj/4GCc+KMbAgDAqSYNGkCdjh15h9GY6+PHsH7lSt4xEDsyKyencPT27ewtoaowAQAoiejdm+QLAmtjvNCURYvcsx494p0DscOJP7olAACQ6F69eAfRmE1paW4tvFPMKNiUlpoW4Hr/uvS8ABjyBKAsE5N6rRs35h0DiSAiLAwX/NAtQR7g6EjDmzXjHYTJvHff5R0BscOJP7onQHsjuPknFQuAwcOJP1wI0L5rV94hWNGNTk68M+iNydev846gCbIWZ3DyIMAqF8N/cnosFgAAAHArLBQcZTKDe45ByK1bGakHD/KOUR0J8MwI1rh/5uh4abCZGe8Y3B3euNFt34ULsPfyZd5R1IETf/gR4K/cXN4hmDU3Nc2Z7+DAOwZXS/PyhF2BgQAAlBrO03PIrJwcRb8dO3jnqK4EGGssl12q+WlA/po1bvvu3QMAEE7GxfGOU1X0yubNntZPn/LOUV0J5MGtW7xDiKMaF4DtubnkxqpVL/6Xzo6N5R2pSnDFH+4EuHD7Nu8QYiCDq++lQDLx+++lr0yFdj+flgazDKBnhyv+cCdQa+PoAZC3q2kPYP6DB4pma9eW+fmf+t8LwIk//AnCEOMoANTHzi6a1q7NO4eukSbLlqk6h6axVXskOjc48UcvCHSdcRQAcCekZut33uEdQ6e63LkD0aqff2Ay/fBh3vEqgiv+6AfBLfPOHXArLOQdRAy0oJqdBlz79ltpVkGBqpdcUzMzod7Vq7wjqoQr/ugNgRBKYY4BDBhVAd1cjQpAyu3blosqXjiD9DpyhHdMlblw4o/eeL4IyKJ//uEdBP756y/4cvdupjYaV6MrARsWLnznf8XFFb4nQf8KAE780S/PC0A8v0uBRBYfr2zdo4f7SG9vEvLbb0yNna8ePQAiu3at6FzlTz42vRcTQ2YWFfHO+yqc+KNfBAAA2p7DQGDdc+fopP79pVnu7p7Wz0esydWUFKY2HRs1ijtvBPc2VELZb948L1JaWtn7XFzy82kfPZoWjCv+6B0BAEDyrg57APWuXoUan3wifcfFxSM5IuLVl9JN//kHYvLz2T7AyHsB35w547656j0lslWP7rLDFX/0zvMegKkOegAN09JoW3//zBQnJ/dOO3cSUvaWVT8/hQKOX7nC8jFkmXGPA5BtCxYQQmnVt9i/H+TqvF9L5JSSt/6broz0gwAAUJqjxQKw8e5dcmPaNMuvHRw86m3fXuno70nG04DrRtwDmB0bK7VV7/q+NCsri1xNTOQdHSTbtkl9z57lHQO9TgAA6JaXnU1kIi/F7Pr4MZUuXiyJa9NG+skPP1Q6Yv1C6KVLLB9LXIy3AJDYBQs02rDz/v1ccy/et8/Mc9IknhmQai+fBUD/EWccgMiePaO1vvuuSGjZ0oMsWuSa+uSJWg0cYOwBHHZyopQQLewrrsiCo0el5O+/Ndp4KePVFZbcy0JD3f4aMcKlS0kJrwyofP89DCSZsQDsKS4mss2bJatbt/Zwnj/fi+TkaNIMOcP2cE8aXrv2qUMtWoi+pzgjaQsXarqtNOvmTdh74YJOA5cWFJB/AwKkf3z2marxHqQfXhYAEsE4Gcg7NFSaNWFC1yF377I0I83KyoIitqf80G+NbCDQ6cABt5ts5/HEToe9gM4XLxKLzp2lvlu36uwzkUb+6wHcZOwBrBPx2QJdGXsBrYxoHCBIqVTaL1rE3M4q3RQAItu1y+JrNzdpZ7arOUg3/isA0YwF4Hs7O7FCkSGMBcCYlgnvvW+fZ3ZyMmsz0qyUFCK7dk1rOV90+bNGj+6wKi9Pp/sIaexlAVBK2S4FkvHiFQCwZhwIrGVEpwBnlywRqymar6VJQdjlN1gvC4D5l2wFgAZZWUVTKysxQhEHth4A/NamjbEsE04i0tLEaktoIP5pAHb5DdvLAuDSJTeXdfDNPFCcXkDBXMYCgMuEq+R649Qp2FPF+RiVILJnz2Dy6NHY5Tdswmv/d5ZtHICsE+fymxfJyYE/MzPZWjGicQCREEIprBXhktyZK1eUf0ql7ud37eL9nRCb1wtAFONA4N8ijgOw3hmIBUAriGzXLovbXbp4ODP20pBeeK0AEDPGcYD/iVgA2rH9A6vOy4Rr0+PogADs8huP1woA7cV4JWCdiAVgEGMBqK7LhCOkhtcLQADjKYC9iFNwj7CdAlAfO7vY7Dp1RMuDkBF6rQCYvMN4CuBtZyfWjThFc69cITKGhSPdCTGRtmsnyl5CyEi9VgCUhbduMS0e8X6tWvJka2sxgnmRwkKAmzdZ2qh2y4QjpKbXCoA0q6AA6t+/z9KgZLCI4wDAeiUABwIRqojw5g+InO00QCHmlYCZjPcE/I49AIQqUqYAQAbjZCBL8QqA8grjlYAP27cXKwtCxqhMAaATGC8Feop3JcD0T8YrAeHW1tVhmXCENFW2ADCuEEytxesB3A5JTYVS1c++qzo8DUCoPGUKgJDCuELwcvEKgJ+fQgGncZlwhLSl7BjAesbJQDnNm4eFSSSiJWS9J8CYlwlHiFGZAmB6IC2NaQJOc1NTu9FNmoiWUMo4EGjEy4QjxKpMAXDpUlJCm9+5w9JocVfxBgLJAsa7zox0mXCExCCo/Gkk45WAEP2ZDGSsy4QjJAbVBWA6YwEQcV0AMZYJVybiaQBCqqgsAHQz20AgvSJmDwCAfMv2uDBIxSsBCKmisgAIkxgvBfYSucttwXgaYEzLhCMkItU9gATGU4AvxO0BwHbGgcBYLAAIqaKyACgbsD4o1MZGzGW5lb6MBeCZo6OxLBOOkJhUFoA7E7KyWJaPpuESSU4bW1uxQhbHpKQwrVOAy4QjpJLKAuDnp1DA6owMpoYtxDsN8CI5OfA4K4utFTwNQOhNQrmvfMc2DqB8V+RxgLasy1BjAUDoTeUWAFLCOBC4SuQrAdfYrgTgMuEIlVV+DyCVcSBwv8g9AMZlwqETFgCE3lRuAaB2jD2A2SJPBrrFWAC6tmiBy4Qj9LpyC4CyMePCIO7iFoDCjy9fxmXCERJXuQXA7G3GU4BHb72VlFSrllhBRVkmfAWeBiD0qnILQBe/e/cgJj9f45bdCVEMEfsuPMbFQVKwACD0qvKvAhBKIZ6tF1B6SeSBQNZlwsmIEad+efttUTNpXf36vBO8qvYf+pUHsREqepE0Y1wifIu4PQDWZcKhd4MGpec2bxYzk9a1W7+ed4RXmR7esIF3BiSeCgsAXch4JSBK3B4A6zLhAAAw8MMP422GDxczlzbRxR99lPDWkCG8c7yaRx4nk/HOgcRRYQEAF8bbgpMGDDhpIc6zAgHEWiYcgI5fu1ZnpwJziopYm1A6rVsn2vMNJrDnIX7r14v5e0X8VNwD+IBxYZDwNm0k+44dE+sfi5+fQgG7Llxgbqh3gwal3rrpypJx6enMjSxt2FDYERoqSqCB7HlouLW15Kh+nZogzVRYAIS+jD0AAIAG774rZhEA7+PHRWnnoo+PTk4Fjh4+LEYz1M/XN366nx9zQ6PFyQNEJpM3GjxYlLYQNxWulnvyZL16EgnbenwvPUxJoba9enk4sz19ODa7SRPhk+vXYb6FBXOmyIcPabGrq7Lvf9/R0zM3lxClUpTvDABy5+bN4ezVq5BQowZrW0SWnS2EuroW18/J0TRvPG3RAtyvXqWrzM2Zv1yj+/clF93cXs+Tk0MIw63bSKcqXS5bHpCTA2MsLUX7xJtPnkCn1FT4JSqK+u7c6eGs/si+/IvFi2HwwoVa2SM2paXE/c4deiEqiu7futVjXHw8a5PxywIDafcvv9Rq3lmRkUph61bPzxMSKttEvmDlSvCePVtbeaAoKwv8IiOFZ1u3ut1MTNTK5yBRVFoA4sfFx1N/NzetfHqQUglbduwwuzV1qotL1ScdxdvUrEmjzp6Fx46OWt9DyXv2WNwcP77Dqrw8TZtISqpVq7j9hQuQZG+v1axySuHgnj0WXSdMqChv8kwLi/zECxfoypYttZ2H3Nu923TIhAnq/H6R7giVvqNlTIzWPn2WIMA1f//ir06cUOdGHWlWQQGN8/dnujegqjoMH56f9PffyTM1P+VwccnPJ6bjxjGtalQV7oTAihEj8pZGR1eUt8OqvDzluoAAXeShg0aOLE6PjhZzWjgST6UFoLTb5s1kJvulowot7txZ4rxtmzqbeIyLj6dJwcFa3j8AAECXu7jktWKbQCQlf/8NZzdt0kVeONelS76wcWNFb/FwPn6cBG/ZopM8b3ftWpyHE4j0UZUemRV/Zt48WrR0qbbD0Lnvvedx4uTJqr4/mtaoYX713DmdnArIKaVWHh4sYwKx2XXqSJwvXqThzZrpIi8JdnOTZp06Vd5bEu3r1lU0ungRgsRbv7GiPMpPunb1tE5K0vpnoSqr/BQAANw6LVtGwn79VethUgMC1Hm/FyksVB4dM0YnpwLuhJCnY8eyNOFp/fSp8lMddL3/Py9AxXldU588gYa6yyN8zrb/kPiqVAAIobRu5vDhZE9EhDbD0B09eqi7jefnCQnUf/VqbeZ6qX+vXqxNeHx39Ch00NH9CHaV53U/dOQIebR1q07yjGLff0hcVSoAAADv/K+4uPAHX1+YHBmptTQbGjeOpiYm6m5W9O3ChVDv6lWt5XrB3MYmLEwiYW1G6Tx7NoSIMMmqEtS5aVNKhUp/x4oZM2dCCuuzICpHvrW1xSc165cqFwCA511us60+PmRndLRW0gQrldnh6ndHdXYqIKdUJmPvLntaP32qXD92LASJN+FIFXKGUoDK83paP31KXceO1fapAF2hVOIkIf2iVgEAeH5Jy3TcgAFQ49gx0dPMzsjw89PsINbJqYBverpYswQ9raOj4bx259PTgrS0qh5wHs7Hj8Noke43KI91WppW20dqU7sAADwvAjm1+/cHkz/+EDWNyZEjLJvnjFqwgMxlfJJwBcjHbPneZBY2dy5Mvn5dW3nhiXp5zdLnzIHfbtzQVhzSS9z9h9hpVAAAAPo5FBUVdZHJYJVIN5cEKZXwLtvgWD+HoiKF77hxWjkVCFIqFYniDt65uOTnkwn+/to4FSAyhYL+pl5eF5f8fHpKO6cmRKZQKEboaN4BqjKNCwDA83PvnOWDBonSE5i0ZYv7V+fOsTbj+XlCAh3y3Xci7iMAACDFGzd6Zicni92udFJcHCHLlondLp2yYYMm91l4nDh5Eh4FBoqdBwLWr/dcqb3eGdKMKCOylwabmeXm7d0LCz7+WKMQO6OjH3/h7d3PQZwZh5QSktB3zx76zdChouylI1FRlpf693/nf5o/MLWyvPHT9+2DISLc7gsAMDky0rLVgAGa5qVUEBKa/vILDRfpdt/2R46YXfnwQ5cuJSXi7TUkBqYewAvv/K+4WBohk5FVS5dCmhq/ZJvSUiJbs6bug759xTr4AZ7PW8gYO3IktZ87l+Upx2BTWgqBwcFmA/r109bB/yJvpsfw4dD466/V2n9vSispoc1XrzbbwlasCFEqM4KHDiXm8+ez5gG7oKAiiwED8ODXT6Jfk42bZ28PsjFjyOHu3aG+jQ2Ms7SEYCsrAACYkZMDY4qKSFpmJtyMilKc37HD0/raNW1+wUT7pk0VdT79lNTr04e629nBt5Xc1DOmqAg2ZWTA4agokyk7dnS9o8VBuvLyLh0zBtb16QPdW7RQJ69QsH272whxB/FO17C1LW0wZgxt0bs3LLKzgx6V3NQzpqgIfNLTYW1UFLmxfbs0i+1ZDgghhBBCCCGEEEKI3f8BdcXskPtBblsAAAAASUVORK5CYII=;" vertex="1" parent="1">
          <mxGeometry x="452" y="311" width="66" height="66" as="geometry" />
        </mxCell>
        <mxCell id="NLgpDmOtwm7RyRbpqEIe-21" value="" style="curved=1;endArrow=classic;html=1;rounded=0;dashed=1;fillColor=#6d8764;strokeColor=#33FF33;strokeWidth=2;" edge="1" parent="1">
          <mxGeometry width="50" height="50" relative="1" as="geometry">
            <mxPoint x="370" y="321" as="sourcePoint" />
            <mxPoint x="500" y="281" as="targetPoint" />
            <Array as="points">
              <mxPoint x="450" y="321" />
            </Array>
          </mxGeometry>
        </mxCell>
        <mxCell id="NLgpDmOtwm7RyRbpqEIe-22" value="" style="curved=1;endArrow=classic;html=1;rounded=0;dashed=1;strokeWidth=2;" edge="1" parent="1">
          <mxGeometry width="50" height="50" relative="1" as="geometry">
            <mxPoint x="370" y="321" as="sourcePoint" />
            <mxPoint x="440" y="341" as="targetPoint" />
            <Array as="points">
              <mxPoint x="420" y="321" />
            </Array>
          </mxGeometry>
        </mxCell>
        <mxCell id="NLgpDmOtwm7RyRbpqEIe-24" value="" style="endArrow=none;html=1;rounded=0;fillColor=#e51400;strokeColor=#B20000;startArrow=classic;startFill=1;endFill=0;strokeWidth=2;" edge="1" parent="1">
          <mxGeometry width="50" height="50" relative="1" as="geometry">
            <mxPoint x="510" y="301" as="sourcePoint" />
            <mxPoint x="550" y="261" as="targetPoint" />
          </mxGeometry>
        </mxCell>
        <mxCell id="NLgpDmOtwm7RyRbpqEIe-25" value="&lt;div style=&quot;&quot;&gt;&lt;font color=&quot;#ff3333&quot; face=&quot;xkcd&quot;&gt;&lt;span style=&quot;font-size: 14px;&quot;&gt;vitrual moose&lt;/span&gt;&lt;/font&gt;&lt;/div&gt;" style="text;html=1;strokeColor=none;fillColor=none;align=right;verticalAlign=middle;whiteSpace=wrap;rounded=0;fontColor=#FFFFFF;" vertex="1" parent="1">
          <mxGeometry x="550" y="241" width="110" height="20" as="geometry" />
        </mxCell>
        <mxCell id="NLgpDmOtwm7RyRbpqEIe-26" value="&lt;div style=&quot;&quot;&gt;&lt;font face=&quot;xkcd&quot;&gt;&lt;span style=&quot;font-size: 14px;&quot;&gt;looks like the&amp;nbsp;&lt;/span&gt;&lt;/font&gt;&lt;/div&gt;&lt;div style=&quot;&quot;&gt;&lt;font face=&quot;xkcd&quot;&gt;&lt;span style=&quot;font-size: 14px;&quot;&gt;i don&#39;t care emoticon&amp;nbsp;&lt;/span&gt;&lt;/font&gt;&lt;/div&gt;&lt;div style=&quot;&quot;&gt;&lt;font face=&quot;xkcd&quot;&gt;&lt;span style=&quot;font-size: 14px;&quot;&gt;which cars don&#39;t care to finish&lt;/span&gt;&lt;/font&gt;&lt;/div&gt;" style="text;html=1;strokeColor=none;fillColor=none;align=left;verticalAlign=middle;whiteSpace=wrap;rounded=0;fontColor=#FF3333;" vertex="1" parent="1">
          <mxGeometry x="228" y="402" width="290" height="20" as="geometry" />
        </mxCell>
        <mxCell id="NLgpDmOtwm7RyRbpqEIe-28" value="" style="endArrow=classic;html=1;rounded=0;strokeWidth=2;" edge="1" parent="1">
          <mxGeometry width="50" height="50" relative="1" as="geometry">
            <mxPoint x="246" y="505" as="sourcePoint" />
            <mxPoint x="286" y="506.60003662109375" as="targetPoint" />
          </mxGeometry>
        </mxCell>
        <mxCell id="NLgpDmOtwm7RyRbpqEIe-29" value="&lt;div style=&quot;&quot;&gt;&lt;font face=&quot;xkcd&quot;&gt;&lt;span style=&quot;font-size: 14px;&quot;&gt;path which cars should take in the test&lt;/span&gt;&lt;/font&gt;&lt;/div&gt;" style="text;html=1;strokeColor=none;fillColor=none;align=left;verticalAlign=middle;whiteSpace=wrap;rounded=0;fontColor=#FFFFFF;" vertex="1" parent="1">
          <mxGeometry x="305" y="495" width="320" height="20" as="geometry" />
        </mxCell>
        <mxCell id="NLgpDmOtwm7RyRbpqEIe-30" value="" style="endArrow=classic;html=1;rounded=0;strokeWidth=2;dashed=1;" edge="1" parent="1">
          <mxGeometry width="50" height="50" relative="1" as="geometry">
            <mxPoint x="245" y="535" as="sourcePoint" />
            <mxPoint x="285" y="536.6000366210938" as="targetPoint" />
          </mxGeometry>
        </mxCell>
        <mxCell id="NLgpDmOtwm7RyRbpqEIe-31" value="&lt;div style=&quot;&quot;&gt;&lt;font face=&quot;xkcd&quot;&gt;&lt;span style=&quot;font-size: 14px;&quot;&gt;path which cars take in the test&lt;/span&gt;&lt;/font&gt;&lt;/div&gt;" style="text;html=1;strokeColor=none;fillColor=none;align=left;verticalAlign=middle;whiteSpace=wrap;rounded=0;fontColor=#FFFFFF;" vertex="1" parent="1">
          <mxGeometry x="304" y="525" width="320" height="20" as="geometry" />
        </mxCell>
        <mxCell id="NLgpDmOtwm7RyRbpqEIe-32" value="" style="endArrow=classic;html=1;rounded=0;strokeWidth=2;dashed=1;strokeColor=#33FF33;" edge="1" parent="1">
          <mxGeometry width="50" height="50" relative="1" as="geometry">
            <mxPoint x="245" y="565" as="sourcePoint" />
            <mxPoint x="285" y="566.6000366210938" as="targetPoint" />
          </mxGeometry>
        </mxCell>
        <mxCell id="NLgpDmOtwm7RyRbpqEIe-33" value="&lt;div style=&quot;&quot;&gt;&lt;font face=&quot;xkcd&quot;&gt;&lt;span style=&quot;font-size: 14px;&quot;&gt;path which cars never take in the test&lt;/span&gt;&lt;/font&gt;&lt;/div&gt;&lt;div style=&quot;&quot;&gt;&lt;font face=&quot;xkcd&quot;&gt;&lt;span style=&quot;font-size: 14px;&quot;&gt;but take in the real world&lt;/span&gt;&lt;/font&gt;&lt;/div&gt;" style="text;html=1;strokeColor=none;fillColor=none;align=left;verticalAlign=middle;whiteSpace=wrap;rounded=0;fontColor=#FFFFFF;" vertex="1" parent="1">
          <mxGeometry x="304" y="555" width="320" height="40" as="geometry" />
        </mxCell>
      </root>
    </mxGraphModel>
  </diagram>
</mxfile>
